<svg id="Layer_1" data-name="Layer 1" xmlns="http://www.w3.org/2000/svg" viewBox="0 0 100 100"><defs><style>.cls-1{fill:#60bb49;}.cls-2{fill:#fff;}</style></defs><rect class="cls-1" width="100" height="100" rx="25"/><path class="cls-2" d="M85.17,62.89s-3.77,51.13-11,60.17A46.37,46.37,0,0,0,89.77,94.85C92.57,76.43,94.89,61,94.89,61S92.43,56.28,85.17,62.89Z" transform="translate(-48.99 -35.86)"/><path class="cls-2" d="M85.61,64a15,15,0,0,0-4.14,2.59.87.87,0,0,1-1.16,0h0a.82.82,0,0,1,0-1.18C82.53,63.06,87,58.51,97.87,58c13.13-.61,16.07,8.83,27.76,6.59,0,0-5.71.44-16.65-7-8.66-5.85-18.65-1.26-18.83-1.2a19.87,19.87,0,0,1,15.77-7.76c11.55,0,16.58,14.34,29.91,12.63,0,0-8.43,14.61-23.12,14.61-9.69,0-15.19-6.44-20.06-10.75A6.78,6.78,0,0,0,85.61,64Z" transform="translate(-48.99 -35.86)"/><path class="cls-2" d="M91.83,81.92S111.46,90,123.45,87c0,0-21.75,6.89-33.76,3.76S91.83,81.92,91.83,81.92Z" transform="translate(-48.99 -35.86)"/></svg>